<svg xmlns="http://www.w3.org/2000/svg" viewBox="0 0 3014.39 1435.76"><defs><style>.cls-1{fill:#e39625;}.cls-2{fill:#f4edde;}.cls-3{fill:#544636;}</style></defs><g id="Layer_17" data-name="Layer 17"><path class="cls-1" d="M1023.63,672c0,49.26-7,97.5-26.79,141.82-32.67,73-84.64,136.34-133.54,199.17-28.4,36.5-58.21,71.94-88.24,107.12-14.84,17.38-32.33,31-57.87,28.32-19.21-2-32.54-13.58-44.06-26.74-75-85.6-148.26-175.06-202.71-275.43-13.21-24.35-24.81-46.5-33.28-72.73C411.57,694.39,419,613.31,460.79,541c64.64-111.84,163.55-163.8,292.46-154.66C876,395.08,984.4,486.69,1014.9,605.49c5.52,21.55,7.29,44.06,10.79,66.13Z"/><circle class="cls-2" cx="724.72" cy="655.72" r="145.31"/><path class="cls-1" d="M1045.34,526c-2.15,4-7.31,11.51-12,13.84a3,3,0,0,1-4-1.37c-26.57-53.83-68.13-105.55-136.66-146.61-4.43-7.87-.76-14.59,16.71-22.53,16.08-7.31,168.56-75,197-82.09C1138.87,279.16,1073.2,474,1045.34,526Z"/><path class="cls-1" d="M561.14,369.32c1.16.94,6.56,3.27,7.92,7.06,1.14,3.18.46,7.14-3,9-101.27,54.1-139.42,135.55-144.45,143.81-6.95,11.41-8.3,12.21-14.6.22-10.51-20-13.19-25.16-22.71-45.65-2.09-4.48-4-9.57-6.2-14-7.58-15.38-23.31-18.37-34.56-11.59-11.75,5.58-16.12,14-27.23,21.11-4,2.57-11.17,5.81-13.52,4.1-3.36-2.45-5.85-9.74-4.73-13.9,1.83-6.79,6-13.44,10.67-18.89,54.14-63.3,145.11-84.57,229.29-82.3,5.06.14,10.13.07,15.19.16C554.62,368.44,556,368.72,561.14,369.32Z"/><path class="cls-3" d="M724.35,687.54c-10.28,11.28-22,18.5-36.61,20.82-31.19,4.92-61.69-19.67-63-51.25a118.65,118.65,0,0,1,0-12.93c.41-6.26,4.22-9.57,10.3-9.77s10,3.05,10.84,9.19c.5,3.78.17,7.66.43,11.48,1.26,18.56,15.88,32.21,34.12,32a33.39,33.39,0,0,0,32.91-32.42,341.83,341.83,0,0,0-.12-34.48c-.25-4.11-2.83-8.38-5.22-12s-6.07-6.13-8.74-9.49c-5.57-7-1.77-16.43,7.15-16.85,12.19-.57,24.44-.51,36.63,0,7.46.34,11.3,8.33,7.73,14.91a17.46,17.46,0,0,1-4.5,5.54c-9.35,7.11-12.07,16.49-11.05,27.85.7,7.84,0,15.81.18,23.71.51,18.34,13.95,32.2,32.08,33.32,16.85,1.05,32.34-12.23,34.64-29.89.62-4.73.24-9.6,1-14.3.92-5.73,4.71-8.79,10.6-8.6s9.49,3.05,10.38,8.93c4.89,32.37-16.79,61.29-49.21,65.14-16,1.9-30.33-2.71-42.56-13.35C729.87,692.93,727.53,690.55,724.35,687.54Z"/><path class="cls-3" d="M1058.32,930.17c-4.74,6.3-9.85,12.63-14.91,18.66-10.7,12.78-24.41,15.45-37.43,7.17-13.78-8.75-18.77-23.68-10.48-38.44,11.78-16.48,24.15-30.35,37.14-51.8,44.84-79.18,60.34-156.1,43.28-254.62-.42-3.92-1.14-7.82-1.39-11.74-1.09-17.25,6.4-30.92,22.53-32.53,15.76-1.57,29.83,5.38,32.29,22.42,13,62.43,13,116.92,2.83,171.56C1119.37,828.1,1097,874.85,1058.32,930.17Z"/><path class="cls-3" d="M1151.44,917.25a17.32,17.32,0,0,1-15.67-25.06A456.82,456.82,0,0,0,1184.37,680c-.16-13.47-.91-27.06-2.23-40.4a17.3,17.3,0,1,1,34.44-3.4c1.41,14.32,2.22,28.91,2.4,43.38a498.09,498.09,0,0,1-52.27,228.1A17.31,17.31,0,0,1,1151.44,917.25Z"/><path class="cls-3" d="M389.41,929.46c4.7,6.33,9.77,12.7,14.78,18.76,10.62,12.86,24.31,15.62,37.39,7.44,13.84-8.66,18.93-23.56,10.74-38.37-11.67-16.56-23.94-30.52-36.78-52.06C371.25,785.74,356.29,708.71,374,610.31c.44-3.91,1.19-7.8,1.47-11.73,1.21-17.23-6.19-31-22.31-32.68-15.75-1.68-29.86,5.17-32.44,22.19-13.41,62.35-13.78,116.83-4,171.54C329.07,827,351.12,873.87,389.41,929.46Z"/><path class="cls-3" d="M296.2,916.82a17.32,17.32,0,0,0,15.66-25.06A457.07,457.07,0,0,1,263.14,679.6c.16-13.47.91-27.06,2.22-40.4a17.3,17.3,0,1,0-34.44-3.38c-1.41,14.32-2.21,28.91-2.38,43.37a498,498,0,0,0,52.38,228.08A17.29,17.29,0,0,0,296.2,916.82Z"/><path class="cls-3" d="M1448.22,695.65a39.31,39.31,0,0,1-24.71-8.52q-11-8.5-12.66-26.48-5.2-62-5.2-122.5,0-189.42,20.34-201.49a46.76,46.76,0,0,1,24.36-6.62q15.36,0,26.48,8.28,9.93,7.57,9.94,21.05,0,5.2-1,15.84-5,54.39-6.15,120.13a231.51,231.51,0,0,1,53-5.67q31,0,56.29,6.38-2.37-92.94-9-154.18-2.37-22.23-2.36-32.64,0-20.58,22.46-20.57,18.21,0,20.93,18.44t4.38,40.68q8.51,110.45,8.51,204.56,0,49.89-1.42,85.37-1.43,26-23.17,26-20.58,0-20.58-23.41.94-43,1-89.86l-.24-30.51q-24.83-7.1-57.7-7.1-29.09,0-52.26,6.39,0,76.86,3.78,125.34.71,9.45.71,12.29,0,15.61-9.22,26.73Q1464.53,695.65,1448.22,695.65Z"/><path class="cls-3" d="M1782.8,624.94q-76.38,0-93.65-76.39a219.87,219.87,0,0,1-5.43-37.6q-.72-16.32-.71-25.3,0-33.58,6.38-96,.94-12.06,10.76-18.21a39.92,39.92,0,0,1,21.64-6.15q13.49,0,23.18,7.8a21.11,21.11,0,0,1,8.51,17.5,81.25,81.25,0,0,1-1,11.83q-3.54,31.68-3.54,78,0,114.45,43.27,114.46,21,0,32.16-33.11,11.36-33.82,11.36-95.31,0-48.71-2.61-76.15a79,79,0,0,1-.71-10.64q0-14.42,20.58-14.42,19.38,0,21,14.19a764.46,764.46,0,0,1,5.2,87.73q0,117.06-54.39,147.57Q1807.4,624.94,1782.8,624.94Z"/><path class="cls-3" d="M1958.57,652.61a33.15,33.15,0,0,1-17.27-4.5q-7.56-4.49-12.29-25.3-7.82-34.29-7.81-84.9,0-122,5.21-143.31t24.12-24.83a218.37,218.37,0,0,1,40.2-3.55q34.29,0,60.54,10.41,9.22,3.78,9.22,12.3a13.41,13.41,0,0,1-.94,5q-4,9.47-15.14,9.46a17.52,17.52,0,0,1-6.38-1.18q-20.34-7.8-34.29-7.8-8.76,0-11.59,5.43-5.45,11.13-6.15,96.25h30q40.44,0,40.44,15.14a11,11,0,0,1-5.44,9.7,15,15,0,0,1-8,2.36,18.9,18.9,0,0,1-4-.47,85.75,85.75,0,0,0-23.41-3.08H1986q0,71.89,2.13,100,11.82-.94,27.67-1a142.08,142.08,0,0,1,17.73,1.42q16.08,2.13,25.19,5.68t9.1,12.29q0,14.19-18.68,14.19a29.13,29.13,0,0,1-8.28-1.18,115.14,115.14,0,0,0-32.63-4.26q-14.43,0-40.2,4.73A53.47,53.47,0,0,1,1958.57,652.61Z"/><path class="cls-3" d="M2303.83,715.28a13,13,0,0,1-5.44-1.19q-22.23-9.23-75.67-9.22a292.42,292.42,0,0,0-41.74,3.19,292.6,292.6,0,0,1-41.74,3.2q-14.67,0-27.2-20t-14.9-56.4q-1.89-46.35-1.89-92.7,0-60.3,3.55-123.68,2.13-42.33,6.15-73.31,4.73-36,20.81-49.19,9.22-7.33,25.07-7.33a53.2,53.2,0,0,1,14.78,2q7,2,11.11,9.81a34.81,34.81,0,0,1,4.14,16.55,182.45,182.45,0,0,1-1.77,25.07q-1.78,12.78-3.2,30.51-7.09,86.79-7.09,172.87,0,65.74,4.49,127.7,22.23-1.65,43-1.65,68.11,0,93.65,14.18,7.33,4.26,7.33,14a18.88,18.88,0,0,1-1.42,7.09Q2312.11,715.28,2303.83,715.28Z"/><path class="cls-3" d="M2304.07,652.61q-17.27,0-28.38-6.15-10.41-5.91-14.19-21.05-6.61-27-6.62-73.31,0-63.37,4.26-147.33.71-15.6,3.31-35.94,3.3-27.43,16.32-38.55,7.56-6.15,21.28-6.15a42,42,0,0,1,12.89,2,16.12,16.12,0,0,1,9.58,8.51,29.23,29.23,0,0,1,3.31,13.36,153,153,0,0,1-1.19,18.8q-1.18,9.58-2.12,22.83-6.17,85.37-6.15,171.21,0,41.86,1.89,61.72,22.45-.93,37.84-.94,20.08,0,20.1,13.24Q2376,650,2360.35,650q-13.95,0-28.49,1.3T2304.07,652.61Z"/><path class="cls-3" d="M2450.26,655.45a44.09,44.09,0,0,1-16.31-3.08,25.32,25.32,0,0,1-12.06-9.34q-4.26-6.27-4.26-15.49.23-20.81.47-56.28t2.84-66.69q12.06-151.83,83.95-151.83,67.4,0,89.63,199.6,6.86,60.78,6.86,68.81,0,20.34-19.39,20.34-23.19,0-24.36-32.63-.48-10.41-20.1-36.07t-56.76-25.65q-1.65,38.07-1.89,81.11Q2478.88,655.45,2450.26,655.45Zm104.06-105.24Q2547.23,461.05,2534,418q-10.17-32.62-21.52-32.63-5.45,0-10.64,11.11-14.43,31.45-19.63,126Q2524.52,522.54,2554.32,550.21Z"/><path class="cls-3" d="M2695.5,629.2q-17.73,0-31.22-7.1a53.4,53.4,0,0,1-20.81-18.68,46,46,0,0,1-7.33-25.07q0-32.64,18-32.63,12.3,0,12.3,12.77a64.3,64.3,0,0,0,2.84,18q6.15,21.28,21.28,21.28c5,0,9.14-1.14,12.3-3.43a21.12,21.12,0,0,0,7.21-9.93,37.69,37.69,0,0,0,2.49-13.6q0-14.41-5.68-25.3a85.21,85.21,0,0,0-14.66-20.1q-9-9.23-19.75-18.45t-21-19.86a95.77,95.77,0,0,1-16.91-23.89q-6.63-13.23-6.63-30.5a75,75,0,0,1,9.11-36.07q9.11-16.91,27.67-27.78t46-10.88q31.23,0,51.68,18.68t20.45,53q0,32.88-17.73,32.87-15.15,0-15.14-13V431q0-14.65-10.17-28.14t-24.36-13.48q-12.3,0-19.27,10.4a38.52,38.52,0,0,0-7,21.76q0,21.53,11.71,34.76a251.44,251.44,0,0,0,20.46,21.05q11.58,10.41,22.58,22.47a113,113,0,0,1,18.45,27.67q7.44,15.6,7.45,35.94,0,25.78-16.09,43.75Q2734.05,629.19,2695.5,629.2Z"/><path class="cls-1" d="M1437.5,1093.41a42.88,42.88,0,0,1-15.85-3,24.57,24.57,0,0,1-11.72-9.08q-4.14-6.09-4.14-15,.23-20.22.46-54.69t2.76-64.81q11.71-147.54,81.58-147.54,65.49,0,87.1,194,6.66,59.07,6.66,66.87,0,19.77-18.84,19.77-22.53,0-23.67-31.72-.46-10.11-19.54-35t-55.15-24.94q-1.61,37-1.84,78.83Q1465.31,1093.4,1437.5,1093.41Zm101.12-102.27q-6.9-86.62-19.76-128.46Q1509,831,1497.94,831q-5.28,0-10.34,10.8-14,30.57-19.07,122.48Q1509.66,964.25,1538.62,991.14Z"/><path class="cls-1" d="M1437.5,1096.53a46.13,46.13,0,0,1-17-3.21,27.81,27.81,0,0,1-13.16-10.22c-3.1-4.57-4.67-10.23-4.67-16.81.15-13.75.31-32.14.46-54.72.15-23,1.08-44.84,2.77-65,3.92-49.38,12.88-87,26.63-111.9,14.12-25.55,33.66-38.5,58.06-38.5,23.07,0,42.37,16.94,57.37,50.33,14.58,32.48,25.63,81.73,32.83,146.4,4.5,39.87,6.68,61.86,6.68,67.22,0,15-7.59,22.89-22,22.89-11.65,0-25.76-6-26.8-34.72-.18-4.14-3.62-13.3-18.89-33.26-11.68-15.27-28-23-49.68-23.67-1,23.69-1.56,49.14-1.71,75.68C1468.43,1086.31,1457.74,1096.53,1437.5,1096.53Zm53.09-294.15c-22.27,0-39.47,11.53-52.59,35.27-13.32,24.08-22,60.88-25.88,109.39-1.67,20.06-2.6,41.78-2.75,64.58-.15,22.58-.3,41-.46,54.7,0,5.28,1.21,9.75,3.6,13.27a21.37,21.37,0,0,0,10.28,7.92,40,40,0,0,0,14.71,2.77c16.84,0,24.69-7.4,24.69-23.3.15-27.77.77-54.33,1.84-79l.13-3h3c25,0,44.35,8.8,57.63,26.16s19.83,29.34,20.18,36.8c.7,19.34,7.42,28.73,20.55,28.73,10.87,0,15.72-5.13,15.72-16.64,0-5-2.24-27.43-6.65-66.52C1560.45,866.7,1532.19,802.38,1490.59,802.38Zm51.78,196.5-5.88-5.45c-18.61-17.29-41.48-26-68-26h-3.3l.18-3.3c3.42-62.25,9.75-102.68,19.35-123.61,4-8.5,8.29-12.63,13.18-12.63,9.09,0,16.69,10.78,23.9,33.91,8.61,28,15.3,71.44,19.89,129.14Zm-70.54-37.71c24,.64,45.19,8.23,63.05,22.61-4.53-53.47-10.92-93.87-19-120.18-8-25.67-14.67-29.51-17.93-29.51-1,0-3.71.88-7.51,9C1481.46,862.64,1475.21,902.37,1471.83,961.17Z"/><path class="cls-1" d="M1844.28,1093.41q-35.85,0-63.55-16.67T1737.42,1027q-15.63-33.09-15.63-82.5,0-55.85,15.74-98.93t46.54-67.68q30.78-24.58,75.83-24.59,73.08,0,95.37,94.22a40.54,40.54,0,0,1,1.38,9.65q0,14.49-14.48,14.48-11.72,0-15.16-14-6.21-25-16.21-40.9t-21.71-23.21q-11.73-7.35-22.75-7.36-18.16,0-33.55,17.7-34.24,39.3-34.71,138.57,0,10.35.58,25.17a251.87,251.87,0,0,0,3.22,31,127.48,127.48,0,0,0,8.84,30.45A62.42,62.42,0,0,0,1828,1052.5q11,9.2,28.73,9.19,18.6,0,31.82-11a87.58,87.58,0,0,0,22-28.38,184.89,184.89,0,0,0,13.79-36.88q2.76-11.49,14.94-11.49,16.3,0,16.31,11.72a20.94,20.94,0,0,1-.69,5,186.13,186.13,0,0,1-18.61,48.72Q1906.1,1093.4,1844.28,1093.41Z"/><path class="cls-1" d="M1844.28,1096.53c-24.37,0-46.29-5.76-65.16-17.11s-33.89-28.57-44.53-51.09-15.92-50.58-15.92-83.84c0-37.42,5.36-71.07,15.93-100,10.64-29.14,26.63-52.37,47.52-69s47.17-25.27,77.78-25.27c50.13,0,83.24,32.51,98.41,96.62a43.56,43.56,0,0,1,1.46,10.37c0,11.35-6.25,17.6-17.6,17.6-6.46,0-14.86-2.84-18.2-16.39-4-16.3-9.35-29.75-15.81-40s-13.35-17.6-20.73-22.23-14.37-6.87-21.09-6.87c-11.11,0-21.6,5.59-31.2,16.62-22.22,25.49-33.63,71.43-33.93,136.54,0,6.83.19,15.25.57,25a250,250,0,0,0,3.18,30.64,124.54,124.54,0,0,0,8.63,29.7A59.45,59.45,0,0,0,1830,1050.1c6.74,5.62,15.74,8.47,26.73,8.47,11.59,0,21.63-3.47,29.82-10.31a84.86,84.86,0,0,0,21.16-27.38,182.92,182.92,0,0,0,13.55-36.27c2.17-9,8.39-13.83,18-13.83,16.91,0,19.44,9.3,19.44,14.85a24.17,24.17,0,0,1-.79,5.81,190.17,190.17,0,0,1-18.92,49.49C1918.35,1077.82,1886.51,1096.53,1844.28,1096.53Zm15.62-340.12c-29.16,0-54,8.05-73.88,23.91s-35.31,38.27-45.56,66.31c-10.32,28.24-15.55,61.17-15.55,97.86,0,32.33,5.16,59.64,15.33,81.17s24.27,37.68,42.1,48.41,38.72,16.21,61.94,16.21c39.79,0,69.8-17.63,89.19-52.4a183.66,183.66,0,0,0,18.3-47.92,17.83,17.83,0,0,0,.61-4.33c0-2.58,0-8.6-13.19-8.6-6.72,0-10.4,2.8-11.91,9.09a188.36,188.36,0,0,1-14,37.56,91.36,91.36,0,0,1-22.73,29.38c-9.35,7.8-20.73,11.75-33.83,11.75-12.49,0-22.83-3.33-30.73-9.91a65.63,65.63,0,0,1-18.1-24.59,131.46,131.46,0,0,1-9.07-31.2,258.2,258.2,0,0,1-3.25-31.4c-.38-9.86-.58-18.36-.58-25.29.31-66.66,12.24-114,35.47-140.62,10.83-12.45,22.92-18.77,35.91-18.77,7.91,0,16.12,2.64,24.41,7.83s15.81,13.27,22.7,24.19,12.39,24.87,16.59,41.82c2.56,10.44,8.15,11.65,12.13,11.65,8,0,11.36-3.4,11.36-11.36a37.34,37.34,0,0,0-1.29-8.89C1937.61,786.45,1907.41,756.41,1859.9,756.41Z"/><path class="cls-1" d="M2150.71,1021.94q-27.24-35.16-83.31-35.16-2.76,36.08-4.36,66-1.62,27.11-25.74,27.12-18.85,0-18.85-21.6,0-10.12,7.13-65.5,29.87-230,111.68-230,87.33,0,102.5,170.75,4.36,48.72,4.36,126.16,0,23.91.46,49.87,0,10.8-4.94,17.7a29.17,29.17,0,0,1-13.44,10.22,48.72,48.72,0,0,1-17.93,3.34q-30.33,0-30.33-30.57Q2177.94,1057.09,2150.71,1021.94Zm-23.33-225.67q-19.77,0-34.24,43.66-17,53.77-23.67,123,67.34,0,105.94,47.11-.47-13.34-1.15-25.74l-1.38-23.44Q2166,852.35,2147.15,813,2138.87,796.27,2127.38,796.27Z"/><path class="cls-1" d="M2208.27,1143.87c-21.88,0-33.45-11.65-33.45-33.69,0-34.52-8.94-63.56-26.58-86.33-17-21.93-43.19-33.33-77.94-33.93-1.74,22.91-3.13,44.08-4.14,63-1.48,24.85-16.51,30.07-28.86,30.07-10,0-22-4.29-22-24.72,0-7,2.34-28.51,7.15-65.9,10-76.66,24.47-135,43.15-173.49,19.09-39.33,43.19-59.27,71.63-59.27,30.15,0,54.36,14.87,72,44.2,17.25,28.74,28.56,72.27,33.64,129.39,2.9,32.45,4.38,75,4.38,126.44,0,16,.15,32.74.46,49.82,0,7.88-1.86,14.45-5.53,19.57a32.47,32.47,0,0,1-14.84,11.31A52,52,0,0,1,2208.27,1143.87ZM2153.18,1020c18.5,23.89,27.88,54.23,27.88,90.16,0,18.72,8.65,27.44,27.21,27.44a46,46,0,0,0,16.79-3.11,26.38,26.38,0,0,0,12.05-9.14c2.89-4,4.35-9.38,4.35-15.88-.3-17-.46-33.85-.46-49.87,0-51.26-1.46-93.61-4.35-125.88-5-56.18-16-98.82-32.78-126.73-16.63-27.71-38.41-41.17-66.61-41.17-52.46,0-89,76.48-108.58,227.31-4.71,36.61-7.1,58.51-7.1,65.1,0,16.56,9,18.47,15.72,18.47,14.45,0,21.64-7.68,22.62-24.18,1.06-19.72,2.53-41.94,4.37-66l.22-2.89h2.89c38.23,0,67.09,12.24,85.78,36.37Zm25.67-.91L2173,1012c-25-30.51-59.83-46-103.53-46H2066l.33-3.42c4.45-46.13,12.45-87.71,23.8-123.59,10.24-30.87,22.41-45.85,37.22-45.85,8.91,0,16.51,6.23,22.57,18.52,12.69,26.47,21.45,76.58,26.05,149l1.38,23.46c.45,8.12.84,16.8,1.15,25.81Zm-105.94-59.33c40.78.74,74,14.69,99.05,41.51-.24-5.83-.51-11.48-.82-16.87L2169.77,961c-4.55-71.55-13.11-120.88-25.44-146.6-4.91-9.94-10.61-15-16.95-15-11.61,0-22.14,14-31.27,41.52C2085.18,875.46,2077.38,915.45,2072.91,959.78Z"/><path class="cls-1" d="M2388,1085.82q-20.91,0-36.88-8.16t-24.94-21.83a53.61,53.61,0,0,1-9-30q0-37.23,17.23-37.23,9.66,0,9.66,12.41a81.27,81.27,0,0,0,3.67,23q9,29.65,33.78,29.65,12.42,0,20.11-5.4a30.77,30.77,0,0,0,11.15-14,47.51,47.51,0,0,0,3.45-17.81q0-18.15-7.36-31.83a106.67,106.67,0,0,0-18.61-24.93,329.34,329.34,0,0,0-26.77-24.36,336.53,336.53,0,0,1-27.24-24.82q-29.88-29.64-29.87-70.78,0-23.44,11.37-41.48t33.9-30.68q22.52-12.63,55.84-12.64,37.45,0,62.4,21.83t24.93,63.89q0,14.94-3.91,26.2t-12.87,11.26q-13.56,0-13.56-12.64v-23q0-18.84-14.24-37.12t-36.54-18.27q-20,0-30.11,14.48a53.17,53.17,0,0,0-10.11,31q0,34,42.75,69.64a332.68,332.68,0,0,1,29,27.23,138.62,138.62,0,0,1,23.44,33.78q9.42,19,9.42,44.24,0,31.26-20,52.85Q2434.39,1085.82,2388,1085.82Z"/><path class="cls-1" d="M2388,1088.94c-14.37,0-27.26-2.86-38.3-8.5a67,67,0,0,1-26.13-22.9,56.83,56.83,0,0,1-9.47-31.7c0-26.77,6.85-40.35,20.35-40.35,4.78,0,12.78,2,12.78,15.53a78.4,78.4,0,0,0,3.55,22.1c5.57,18.43,15.64,27.4,30.78,27.4,7.58,0,13.74-1.62,18.32-4.83a27.83,27.83,0,0,0,10-12.62,44.63,44.63,0,0,0,3.22-16.65c0-11.52-2.35-21.73-7-30.35a104,104,0,0,0-18.07-24.2,327.18,327.18,0,0,0-26.54-24.15A339.06,339.06,0,0,1,2334,912.67c-20.41-20.25-30.78-44.81-30.78-73,0-16.15,4-30.67,11.86-43.15s19.61-23.09,35-31.73,34.72-13,57.37-13c25.63,0,47.32,7.6,64.45,22.6s26,37.4,26,66.24c0,10.26-1.37,19.42-4.08,27.22-3.83,11-10.72,13.36-15.82,13.36-10.75,0-16.68-5.6-16.68-15.76v-23c0-11.79-4.57-23.63-13.59-35.2s-20.1-17.06-34.07-17.06c-12.36,0-21.37,4.3-27.55,13.14a50.37,50.37,0,0,0-9.55,29.23c0,21.6,14,44.22,41.62,67.24a336.06,336.06,0,0,1,29.23,27.48,142.41,142.41,0,0,1,24,34.54c6.47,13,9.75,28.37,9.75,45.63,0,21.55-7,40-20.83,55C2444,1080,2419.68,1088.94,2388,1088.94Zm-53.55-97.2c-9.36,0-14.11,11.47-14.11,34.1a50.81,50.81,0,0,0,8.45,28.28,61,61,0,0,0,23.75,20.76c10.15,5.19,22.08,7.82,35.46,7.82,29.9,0,52.71-8.25,67.8-24.51,12.71-13.73,19.16-30.8,19.16-50.73,0-16.29-3.06-30.7-9.1-42.85a136,136,0,0,0-22.91-33,329.55,329.55,0,0,0-28.68-27c-29.11-24.26-43.87-48.5-43.87-72A56.49,56.49,0,0,1,2381,799.76c7.33-10.49,18.32-15.81,32.67-15.81,15.8,0,28.92,6.55,39,19.47,9.89,12.69,14.91,25.82,14.91,39v23c0,6.67,3.12,9.51,10.43,9.51,2.9,0,7.07-1,9.92-9.16a77.1,77.1,0,0,0,3.74-25.17c0-27-8-47.67-23.87-61.54S2431.58,758,2407.5,758c-21.56,0-39.84,4.12-54.31,12.24s-25.52,18.1-32.78,29.63-10.9,24.86-10.9,39.81c0,26.43,9.74,49.5,28.95,68.56a335.69,335.69,0,0,0,27,24.62,334.17,334.17,0,0,1,27,24.59,110.38,110.38,0,0,1,19.13,25.64c5.13,9.54,7.73,20.74,7.73,33.31a51,51,0,0,1-3.67,19,34,34,0,0,1-12.25,15.42c-5.65,4-13,6-21.91,6-18,0-30.37-10.72-36.77-31.86A84.81,84.81,0,0,1,2341,1001C2341,991.74,2336.54,991.74,2334.42,991.74Z"/><path class="cls-1" d="M2688.89,1021.94q-27.24-35.16-83.31-35.16-2.76,36.08-4.36,66-1.62,27.11-25.74,27.12-18.86,0-18.85-21.6,0-10.12,7.13-65.5,29.86-230,111.68-230,87.33,0,102.5,170.75,4.35,48.72,4.36,126.16,0,23.91.46,49.87,0,10.8-4.94,17.7a29.23,29.23,0,0,1-13.44,10.22,48.76,48.76,0,0,1-17.93,3.34q-30.33,0-30.33-30.57Q2716.12,1057.09,2688.89,1021.94Zm-23.33-225.67q-19.77,0-34.24,43.66-17,53.77-23.67,123,67.33,0,105.94,47.11-.47-13.34-1.15-25.74l-1.38-23.44q-6.89-108.46-25.74-147.77Q2677.06,796.27,2665.56,796.27Z"/><path class="cls-1" d="M2746.45,1143.87c-21.89,0-33.45-11.65-33.45-33.69,0-34.52-8.95-63.56-26.58-86.33-17-21.93-43.19-33.33-78-33.93-1.73,22.89-3.12,44.06-4.14,63-1.47,24.85-16.5,30.07-28.85,30.07-10,0-22-4.29-22-24.72,0-7,2.34-28.5,7.15-65.9,10-76.66,24.47-135,43.14-173.49,19.1-39.33,43.2-59.27,71.64-59.27,30.15,0,54.36,14.87,72,44.2,17.24,28.74,28.56,72.27,33.64,129.39,2.9,32.45,4.38,75,4.38,126.44,0,16,.15,32.72.45,49.82,0,7.88-1.85,14.45-5.52,19.57a32.47,32.47,0,0,1-14.84,11.31A52,52,0,0,1,2746.45,1143.87ZM2602.69,983.65h2.89c38.22,0,67.08,12.24,85.78,36.37h0c18.5,23.89,27.88,54.23,27.88,90.16,0,18.72,8.65,27.44,27.21,27.44a45.8,45.8,0,0,0,16.79-3.12,26.22,26.22,0,0,0,12-9.13c2.89-4,4.36-9.38,4.36-15.88-.31-17.07-.46-33.87-.46-49.87,0-51.26-1.46-93.61-4.35-125.88-5-56.18-16-98.82-32.78-126.73-16.63-27.71-38.42-41.17-66.61-41.17-52.47,0-89,76.48-108.59,227.31-4.71,36.61-7.09,58.51-7.09,65.1,0,16.56,9,18.47,15.72,18.47,14.45,0,21.64-7.68,22.62-24.18,1.06-19.74,2.53-42,4.37-66ZM2717,1019.11l-5.85-7.14c-25-30.51-59.83-46-103.53-46h-3.44l.33-3.42c4.44-46.13,12.45-87.71,23.8-123.59,10.24-30.87,22.41-45.85,37.22-45.85,8.91,0,16.5,6.23,22.57,18.52,12.69,26.47,21.45,76.58,26,149l1.38,23.46c.45,8.14.84,16.82,1.15,25.81Zm-105.94-59.33c40.78.74,74,14.69,99,41.51-.24-5.82-.52-11.46-.82-16.87L2708,961c-4.55-71.55-13.11-120.88-25.44-146.6-4.91-9.94-10.61-15-17-15-11.62,0-22.14,14-31.28,41.52C2623.36,875.46,2615.55,915.45,2611.09,959.78Z"/></g></svg>